<mxfile host="app.diagrams.net" modified="2022-04-18T19:47:58.491Z" agent="5.0 (Macintosh)" etag="8IsbTvMltOe_6U905ZjF" version="17.4.5" type="github">
  <diagram id="LpC_mYqOw3zMSjC3XxB5" name="Page-1">
    <mxGraphModel dx="946" dy="2247" grid="1" gridSize="10" guides="1" tooltips="1" connect="1" arrows="1" fold="1" page="1" pageScale="1" pageWidth="827" pageHeight="1169" math="0" shadow="0">
      <root>
        <mxCell id="0" />
        <mxCell id="1" parent="0" />
        <mxCell id="QjSxIlXuMoYWdkUnr7uK-2" value="" style="rounded=0;whiteSpace=wrap;html=1;fillColor=none;strokeWidth=2;dashed=1;strokeColor=#9673a6;" vertex="1" parent="1">
          <mxGeometry x="40" y="40" width="760" height="1080" as="geometry" />
        </mxCell>
        <mxCell id="QjSxIlXuMoYWdkUnr7uK-1" value="" style="shape=image;html=1;verticalAlign=top;verticalLabelPosition=bottom;labelBackgroundColor=#ffffff;imageAspect=0;aspect=fixed;image=https://cdn2.iconfinder.com/data/icons/boxicons-logos/24/bxl-redux-128.png;fillColor=none;strokeColor=#9673a6;fontColor=#A680B8;" vertex="1" parent="1">
          <mxGeometry x="40" y="40" width="40" height="40" as="geometry" />
        </mxCell>
        <mxCell id="QjSxIlXuMoYWdkUnr7uK-3" value="Redux Store" style="text;html=1;strokeColor=none;fillColor=none;align=left;verticalAlign=middle;whiteSpace=wrap;rounded=0;dashed=1;fontColor=#A680B8;" vertex="1" parent="1">
          <mxGeometry x="80" y="50" width="100" height="30" as="geometry" />
        </mxCell>
        <mxCell id="QjSxIlXuMoYWdkUnr7uK-4" value="" style="ellipse;whiteSpace=wrap;html=1;dashed=1;fontColor=#A680B8;strokeWidth=2;fillColor=none;" vertex="1" parent="1">
          <mxGeometry x="110" y="270" width="385" height="300" as="geometry" />
        </mxCell>
        <mxCell id="QjSxIlXuMoYWdkUnr7uK-5" value="&lt;div align=&quot;left&quot;&gt;&lt;b&gt;userprofileState&lt;/b&gt;&lt;/div&gt;&lt;div align=&quot;left&quot;&gt;&amp;lt;&amp;lt;Userprofile&amp;gt;&amp;gt;&lt;br&gt;&lt;/div&gt;" style="text;html=1;strokeColor=none;fillColor=none;align=left;verticalAlign=middle;whiteSpace=wrap;rounded=0;dashed=1;fontColor=#000000;" vertex="1" parent="1">
          <mxGeometry x="140" y="190" width="100" height="30" as="geometry" />
        </mxCell>
        <mxCell id="QjSxIlXuMoYWdkUnr7uK-6" value="&lt;div align=&quot;left&quot;&gt;user object that represents the presisted state on the DB, should always be in sync with firestore&lt;/div&gt;" style="text;html=1;strokeColor=none;fillColor=none;align=left;verticalAlign=middle;whiteSpace=wrap;rounded=0;dashed=1;fontColor=#000000;" vertex="1" parent="1">
          <mxGeometry x="140" y="220" width="300" height="40" as="geometry" />
        </mxCell>
        <mxCell id="QjSxIlXuMoYWdkUnr7uK-9" value="&lt;div align=&quot;left&quot;&gt;userprofile: {&lt;span&gt;&lt;/span&gt;&lt;br&gt;&lt;/div&gt;&lt;div align=&quot;left&quot;&gt;&lt;span style=&quot;white-space: pre&quot;&gt;	&lt;/span&gt;firstName: &lt;i&gt;String&lt;/i&gt;&lt;/div&gt;&lt;div align=&quot;left&quot;&gt;&lt;span style=&quot;white-space: pre&quot;&gt;	&lt;/span&gt;lastName: &lt;i&gt;String&lt;span&gt;&lt;/span&gt;&lt;/i&gt;&lt;br&gt;&lt;/div&gt;&lt;div align=&quot;left&quot;&gt;&lt;span style=&quot;white-space: pre&quot;&gt;	&lt;/span&gt;description: &lt;i&gt;String&lt;/i&gt;&lt;/div&gt;&lt;div align=&quot;left&quot;&gt;&lt;span style=&quot;white-space: pre&quot;&gt;	&lt;/span&gt;biography: &lt;i&gt;String&lt;/i&gt;&lt;/div&gt;&lt;div align=&quot;left&quot;&gt;&lt;span style=&quot;white-space: pre&quot;&gt;	&lt;/span&gt;tags: &lt;i&gt;Array&amp;lt;String&amp;gt;&lt;/i&gt;&lt;/div&gt;&lt;div align=&quot;left&quot;&gt;&lt;span style=&quot;white-space: pre&quot;&gt;	&lt;/span&gt;pictureReference: &lt;i&gt;Array&amp;lt;String&amp;gt;&lt;/i&gt;&lt;/div&gt;&lt;div align=&quot;left&quot;&gt;&lt;span style=&quot;white-space: pre&quot;&gt;	&lt;/span&gt;birthday: &lt;i&gt;Date&lt;/i&gt;&lt;/div&gt;&lt;div align=&quot;left&quot;&gt;&lt;span style=&quot;white-space: pre&quot;&gt;	&lt;/span&gt;email: &lt;i&gt;String&lt;/i&gt;&lt;/div&gt;&lt;div align=&quot;left&quot;&gt;&lt;span style=&quot;white-space: pre&quot;&gt;	&lt;/span&gt;phoneNumber: &lt;i&gt;String&lt;/i&gt;&lt;/div&gt;&lt;div align=&quot;left&quot;&gt;&lt;span style=&quot;white-space: pre&quot;&gt;	&lt;/span&gt;gender: &lt;i&gt;String&lt;/i&gt;&lt;/div&gt;&lt;div align=&quot;left&quot;&gt;&lt;span style=&quot;white-space: pre&quot;&gt;	&lt;/span&gt;isSearchingRoom: &lt;i&gt;Boolean&lt;/i&gt;&lt;/div&gt;&lt;div align=&quot;left&quot;&gt;&lt;span style=&quot;white-space: pre&quot;&gt;	&lt;/span&gt;isAdvertisingRoom: &lt;i&gt;Boolean&lt;/i&gt;&lt;/div&gt;&lt;div align=&quot;left&quot;&gt;&lt;span style=&quot;white-space: pre&quot;&gt;	&lt;/span&gt;moveInDate: &lt;i&gt;Date&lt;/i&gt;&lt;/div&gt;&lt;div align=&quot;left&quot;&gt;&lt;span style=&quot;white-space: pre&quot;&gt;	&lt;/span&gt;moveOutDate: &lt;i&gt;Date&lt;/i&gt;&lt;/div&gt;&lt;div align=&quot;left&quot;&gt;&lt;span style=&quot;white-space: pre&quot;&gt;	&lt;/span&gt;password: &lt;i&gt;String&lt;/i&gt;&lt;br&gt;&lt;/div&gt;&lt;div align=&quot;left&quot;&gt;}&lt;/div&gt;" style="text;html=1;strokeColor=none;fillColor=none;align=left;verticalAlign=middle;whiteSpace=wrap;rounded=0;dashed=1;fontColor=#000000;" vertex="1" parent="1">
          <mxGeometry x="210" y="270" width="220" height="300" as="geometry" />
        </mxCell>
        <mxCell id="QjSxIlXuMoYWdkUnr7uK-10" value="" style="ellipse;whiteSpace=wrap;html=1;dashed=1;fontColor=#A680B8;strokeWidth=2;fillColor=none;" vertex="1" parent="1">
          <mxGeometry x="110" y="710" width="385" height="300" as="geometry" />
        </mxCell>
        <mxCell id="QjSxIlXuMoYWdkUnr7uK-11" value="&lt;div align=&quot;left&quot;&gt;&lt;b&gt;flatprofileState&lt;/b&gt;&lt;/div&gt;&lt;div align=&quot;left&quot;&gt;&amp;lt;&amp;lt;Flatprofile&amp;gt;&amp;gt;&lt;br&gt;&lt;/div&gt;" style="text;html=1;strokeColor=none;fillColor=none;align=left;verticalAlign=middle;whiteSpace=wrap;rounded=0;dashed=1;fontColor=#000000;" vertex="1" parent="1">
          <mxGeometry x="140" y="630" width="100" height="30" as="geometry" />
        </mxCell>
        <mxCell id="QjSxIlXuMoYWdkUnr7uK-12" value="&lt;div align=&quot;left&quot;&gt;user object that represents the presisted state on the DB, should always be in sync with firestore&lt;/div&gt;" style="text;html=1;strokeColor=none;fillColor=none;align=left;verticalAlign=middle;whiteSpace=wrap;rounded=0;dashed=1;fontColor=#000000;" vertex="1" parent="1">
          <mxGeometry x="140" y="660" width="300" height="40" as="geometry" />
        </mxCell>
        <mxCell id="QjSxIlXuMoYWdkUnr7uK-13" value="&lt;div align=&quot;left&quot;&gt;userprofile: {&lt;span&gt;&lt;/span&gt;&lt;br&gt;&lt;/div&gt;&lt;div align=&quot;left&quot;&gt;&lt;span style=&quot;white-space: pre&quot;&gt;	&lt;/span&gt;firstName: &lt;i&gt;String&lt;/i&gt;&lt;/div&gt;&lt;div align=&quot;left&quot;&gt;&lt;span style=&quot;white-space: pre&quot;&gt;	&lt;/span&gt;lastName: &lt;i&gt;String&lt;span&gt;&lt;/span&gt;&lt;/i&gt;&lt;br&gt;&lt;/div&gt;&lt;div align=&quot;left&quot;&gt;&lt;span style=&quot;white-space: pre&quot;&gt;	&lt;/span&gt;description: &lt;i&gt;String&lt;/i&gt;&lt;/div&gt;&lt;div align=&quot;left&quot;&gt;&lt;span style=&quot;white-space: pre&quot;&gt;	&lt;/span&gt;biography: &lt;i&gt;String&lt;/i&gt;&lt;/div&gt;&lt;div align=&quot;left&quot;&gt;&lt;span style=&quot;white-space: pre&quot;&gt;	&lt;/span&gt;tags: &lt;i&gt;Array&amp;lt;String&amp;gt;&lt;/i&gt;&lt;/div&gt;&lt;div align=&quot;left&quot;&gt;&lt;span style=&quot;white-space: pre&quot;&gt;	&lt;/span&gt;pictureReference: &lt;i&gt;Array&amp;lt;String&amp;gt;&lt;/i&gt;&lt;/div&gt;&lt;div align=&quot;left&quot;&gt;&lt;span style=&quot;white-space: pre&quot;&gt;	&lt;/span&gt;birthday: &lt;i&gt;Date&lt;/i&gt;&lt;/div&gt;&lt;div align=&quot;left&quot;&gt;&lt;span style=&quot;white-space: pre&quot;&gt;	&lt;/span&gt;email: &lt;i&gt;String&lt;/i&gt;&lt;/div&gt;&lt;div align=&quot;left&quot;&gt;&lt;span style=&quot;white-space: pre&quot;&gt;	&lt;/span&gt;phoneNumber: &lt;i&gt;String&lt;/i&gt;&lt;/div&gt;&lt;div align=&quot;left&quot;&gt;&lt;span style=&quot;white-space: pre&quot;&gt;	&lt;/span&gt;gender: &lt;i&gt;String&lt;/i&gt;&lt;/div&gt;&lt;div align=&quot;left&quot;&gt;&lt;span style=&quot;white-space: pre&quot;&gt;	&lt;/span&gt;isSearchingRoom: &lt;i&gt;Boolean&lt;/i&gt;&lt;/div&gt;&lt;div align=&quot;left&quot;&gt;&lt;span style=&quot;white-space: pre&quot;&gt;	&lt;/span&gt;isAdvertisingRoom: &lt;i&gt;Boolean&lt;/i&gt;&lt;/div&gt;&lt;div align=&quot;left&quot;&gt;&lt;span style=&quot;white-space: pre&quot;&gt;	&lt;/span&gt;moveInDate: &lt;i&gt;Date&lt;/i&gt;&lt;/div&gt;&lt;div align=&quot;left&quot;&gt;&lt;span style=&quot;white-space: pre&quot;&gt;	&lt;/span&gt;moveOutDate: &lt;i&gt;Date&lt;/i&gt;&lt;/div&gt;&lt;div align=&quot;left&quot;&gt;&lt;span style=&quot;white-space: pre&quot;&gt;	&lt;/span&gt;password: &lt;i&gt;String&lt;/i&gt;&lt;br&gt;&lt;/div&gt;&lt;div align=&quot;left&quot;&gt;}&lt;/div&gt;" style="text;html=1;strokeColor=none;fillColor=none;align=left;verticalAlign=middle;whiteSpace=wrap;rounded=0;dashed=1;fontColor=#000000;" vertex="1" parent="1">
          <mxGeometry x="210" y="710" width="220" height="300" as="geometry" />
        </mxCell>
      </root>
    </mxGraphModel>
  </diagram>
</mxfile>
